<svg xmlns="http://www.w3.org/2000/svg" width="110" height="49.997" viewBox="24 0 110 49.997"><g data-name="CompositeLayer"><path d="M77.405 9.564a2.64 2.64 0 0 0-2.056-.977h-41.3l-.834-4.051a2.656 2.656 0 0 0-1.541-1.899L25.854.11A1.326 1.326 0 0 0 25.48.01a1.326 1.326 0 0 0-1.37.79 1.327 1.327 0 0 0-.101.374c-.066.566.24 1.132.79 1.37l5.819 2.528 6.415 31.159a2.662 2.662 0 0 0 2.598 2.118h31.764a1.326 1.326 0 0 0 1.326-1.327c0-.733-.593-1.327-1.326-1.327H39.631l-.78-3.79h32.79c1.252 0 2.344-.89 2.597-2.117l3.709-18.012a2.685 2.685 0 0 0 .039-.25 2.643 2.643 0 0 0-.581-1.96ZM71.64 29.251H38.304l-3.708-18.01h40.753l-3.708 18.01Zm-8.339 11.242a4.756 4.756 0 0 0-4.75 4.752c0 2.62 2.131 4.752 4.75 4.752a4.756 4.756 0 0 0 4.75-4.752c0-2.62-2.131-4.752-4.75-4.752Zm-16.659 0a4.756 4.756 0 0 0-4.749 4.752c0 2.62 2.13 4.752 4.75 4.752a4.756 4.756 0 0 0 4.749-4.752c0-2.62-2.131-4.752-4.75-4.752Zm16.66 6.85a2.1 2.1 0 0 1-2.098-2.098 2.1 2.1 0 0 1 2.097-2.1 2.1 2.1 0 0 1 2.098 2.1 2.1 2.1 0 0 1-2.098 2.098Zm-18.757-2.098a2.1 2.1 0 0 0 2.097 2.098 2.1 2.1 0 0 0 2.098-2.098 2.1 2.1 0 0 0-2.098-2.1 2.1 2.1 0 0 0-2.097 2.1Z" fill="rgba(0, 0, 0, 1)" fill-rule="evenodd" data-name="Shopping cart"/><path d="M76 5.938A5.999 5.999 0 0 1 82.042 0h45.916C131.288 0 134 2.665 134 5.938v2.36a1.199 1.199 0 0 1 0 .015v7.125a1.199 1.199 0 0 1 0 .015v16.61A5.999 5.999 0 0 1 127.958 38H82.042C78.712 38 76 35.336 76 32.063V15.438m55.583 16.625c0 1.964-1.626 3.562-3.625 3.562H82.042c-1.999 0-3.625-1.598-3.625-3.562V16.625h53.166v15.438Zm0-17.813H78.417V9.5h53.166v4.75ZM78.417 7.125V5.938a3.599 3.599 0 0 1 3.625-3.563h45.916c1.999 0 3.625 1.599 3.625 3.563v1.187H78.417ZM98.958 28.5h-14.5a1.198 1.198 0 0 0-1.208 1.188c0 .655.541 1.187 1.208 1.187h14.5c.667 0 1.209-.532 1.209-1.187a1.199 1.199 0 0 0-1.209-1.188Zm0-4.75h-14.5c-.667 0-1.208.533-1.208 1.188 0 .656.541 1.187 1.208 1.187h14.5a1.198 1.198 0 0 0 1.209-1.187 1.199 1.199 0 0 0-1.209-1.188Zm24.167-2.375h-2.417a3.598 3.598 0 0 0-3.625 3.563v2.375c0 1.964 1.627 3.562 3.625 3.562h2.417a3.598 3.598 0 0 0 3.625-3.562v-2.375c0-1.964-1.626-3.563-3.625-3.563ZM76 8.313V5.938v26.125m47.125-3.563a1.199 1.199 0 0 0 1.208-1.187v-2.375c0-.655-.541-1.188-1.208-1.188h-2.417c-.667 0-1.208.533-1.208 1.188v2.375a1.199 1.199 0 0 0 1.208 1.187h2.417ZM76 32.063C76 35.336 78.712 38 82.042 38" fill="rgba(0, 0, 0, 1)" fill-rule="evenodd" data-name="Credit card"/><path d="m94.94 15.262-1.502-5.895a.895.895 0 0 0 .719-.871v-.951c0-2.064-1.712-3.743-3.815-3.743h-6.84v-1.96A1.862 1.862 0 0 0 81.623 0H46.752a1.862 1.862 0 0 0-1.877 1.842V18a.9.9 0 0 0 .908.892.9.9 0 0 0 .908-.892V1.842a.06.06 0 0 1 .06-.06h34.873a.06.06 0 0 1 .06.06V18a.9.9 0 0 0 .909.89.9.9 0 0 0 .908-.89v-1.01h10.713a2.984 2.984 0 0 1 2.19.945 2.903 2.903 0 0 1 .637 1.074h-2.824a.9.9 0 0 0-.908.891v1.901a2.822 2.822 0 0 0 2.845 2.792h1.03v3.921h-2.375c-.78-2.21-2.921-3.802-5.436-3.802a5.785 5.785 0 0 0-4.179 1.772 5.637 5.637 0 0 0-1.256 2.03h-.437v-6.713a.9.9 0 0 0-.908-.891.9.9 0 0 0-.909.891v6.713H62.843a5.748 5.748 0 0 0-5.085-3.792 5.922 5.922 0 0 0-.35-.01 5.785 5.785 0 0 0-4.18 1.772 5.637 5.637 0 0 0-1.256 2.03h-5.22a.06.06 0 0 1-.061-.06v-1.96h3.935a.9.9 0 0 0 .909-.89.9.9 0 0 0-.909-.892h-8.718a.9.9 0 0 0-.908.891.9.9 0 0 0 .908.891h2.967v1.96a1.862 1.862 0 0 0 1.877 1.842h4.905a1.022 1.022 0 0 1 0 .027l-.001.033A5.705 5.705 0 0 0 57.407 36a5.705 5.705 0 0 0 5.752-5.643.885.885 0 0 0-.001-.033 1.094 1.094 0 0 1 0-.027h20.466a1.022 1.022 0 0 1-.001.027l-.001.033A5.705 5.705 0 0 0 89.373 36c3.172 0 5.752-2.531 5.752-5.643a.838.838 0 0 0 0-.033 1.017 1.017 0 0 1-.002-.027h2.969a.9.9 0 0 0 .908-.89V19.9c0-2.347-1.765-4.296-4.06-4.64ZM72.58 8.816a.911.911 0 0 0-.534-.255.918.918 0 0 0-.725.23.916.916 0 0 0-.026.025L63.22 16.74l-4.201-4.122a.91.91 0 0 0-.528-.254.917.917 0 0 0-.756.254.879.879 0 0 0-.063 1.192.908.908 0 0 0 .063.068l4.843 4.752a.91.91 0 0 0 .527.254.931.931 0 0 0 .115.007.94.94 0 0 0 .004 0c.22 0 .44-.08.613-.237a.913.913 0 0 0 .025-.024l8.718-8.554a.884.884 0 0 0 .238-.408.88.88 0 0 0-.237-.852Zm6.138 15.897H65.157a.9.9 0 0 0-.909.891.9.9 0 0 0 .909.892h13.561a.9.9 0 0 0 .908-.892.9.9 0 0 0-.908-.89Zm4.783-9.505V9.386h8.07l1.483 5.822h-9.553ZM55.47 20.911H43.846a.9.9 0 0 0-.909.891.9.9 0 0 0 .909.892H55.47a.9.9 0 0 0 .908-.892.9.9 0 0 0-.908-.89Zm29.968 9.446a3.903 3.903 0 0 0 3.936 3.861 3.903 3.903 0 0 0 3.935-3.861c0-2.13-1.765-3.862-3.935-3.862s-3.936 1.732-3.936 3.862Zm-28.03 3.861c-2.17 0-3.936-1.732-3.936-3.861a3.903 3.903 0 0 1 3.935-3.862c2.17 0 3.935 1.732 3.935 3.862a3.903 3.903 0 0 1-3.935 3.861ZM83.5 5.585h6.841c1.102 0 1.998.879 1.998 1.96v.06h-8.839v-2.02Zm-26.094 22.93c-1.035 0-1.877.826-1.877 1.842a1.862 1.862 0 0 0 1.877 1.841 1.862 1.862 0 0 0 1.877-1.841 1.862 1.862 0 0 0-1.877-1.842Zm31.967 0c-1.035 0-1.877.826-1.877 1.842a1.862 1.862 0 0 0 1.877 1.841 1.862 1.862 0 0 0 1.877-1.841 1.862 1.862 0 0 0-1.877-1.842Zm7.81-5.703h-1.03a1.02 1.02 0 0 1-1.029-1.01v-1.01h2.059v2.02Z" fill="rgba(0, 0, 0, 1)" fill-rule="evenodd" data-name="Shipped copy 2"/><path d="M97.875 13.333H83.25V8.89h10.125c.621 0 1.125-.498 1.125-1.111V1.11A1.119 1.119 0 0 0 93.375 0h-11.25C81.505 0 81 .498 81 1.111v12.222H64.225a10.075 10.075 0 0 0-.1 0 1.119 1.119 0 0 0-.002 0 10.075 10.075 0 0 0-10.123 10v13.334A3.358 3.358 0 0 0 57.375 40h13.476a1.119 1.119 0 0 0 .024 0 3.358 3.358 0 0 0 .05 0h33.7c1.86 0 3.375-1.496 3.375-3.333V23.333a10.075 10.075 0 0 0-10.125-10Zm6.75 24.445a1.12 1.12 0 0 0 1.125-1.111V23.333c0-4.289-3.533-7.778-7.875-7.778H83.25v7.778a1.119 1.119 0 0 1-1.125 1.111A1.119 1.119 0 0 1 81 23.334v-7.779H70.487a10.075 10.075 0 0 1 3.763 7.778v13.334a3.358 3.358 0 0 1-.198 1.11h30.573Zm-33.74 0h-.01a1.119 1.119 0 0 0-.013 0H57.375a1.12 1.12 0 0 1-1.125-1.111V23.333a7.835 7.835 0 0 1 7.854-7.778 1.119 1.119 0 0 0 .021 0h.08A7.835 7.835 0 0 1 72 23.333v13.334a1.12 1.12 0 0 1-1.115 1.11ZM92.25 6.667h-9V2.222h9v4.445Z" fill="rgba(0, 0, 0, 1)" fill-rule="evenodd" data-name="Mailbox"/></g></svg>