<svg xmlns="http://www.w3.org/2000/svg" width="54" height="40" viewBox="54 0 54 40"><path d="M97.875 13.333H83.25V8.89h10.125c.621 0 1.125-.498 1.125-1.111V1.11A1.119 1.119 0 0 0 93.375 0h-11.25C81.505 0 81 .498 81 1.111v12.222H64.225a10.075 10.075 0 0 0-.1 0 1.119 1.119 0 0 0-.002 0 10.075 10.075 0 0 0-10.123 10v13.334A3.358 3.358 0 0 0 57.375 40h13.476a1.119 1.119 0 0 0 .024 0 3.358 3.358 0 0 0 .05 0h33.7c1.86 0 3.375-1.496 3.375-3.333V23.333a10.075 10.075 0 0 0-10.125-10Zm6.75 24.445a1.12 1.12 0 0 0 1.125-1.111V23.333c0-4.289-3.533-7.778-7.875-7.778H83.25v7.778a1.119 1.119 0 0 1-1.125 1.111A1.119 1.119 0 0 1 81 23.334v-7.779H70.487a10.075 10.075 0 0 1 3.763 7.778v13.334a3.358 3.358 0 0 1-.198 1.11h30.573Zm-33.74 0h-.01a1.119 1.119 0 0 0-.013 0H57.375a1.12 1.12 0 0 1-1.125-1.111V23.333a7.835 7.835 0 0 1 7.854-7.778 1.119 1.119 0 0 0 .021 0h.08A7.835 7.835 0 0 1 72 23.333v13.334a1.12 1.12 0 0 1-1.115 1.11ZM92.25 6.667h-9V2.222h9v4.445Z" fill="rgba(0, 0, 0, 1)" fill-rule="evenodd" data-name="Mailbox"/></svg>