<svg xmlns="http://www.w3.org/2000/svg" width="58" height="36" viewBox="41 0 58 36"><path d="m94.94 15.262-1.502-5.895a.895.895 0 0 0 .719-.871v-.951c0-2.064-1.712-3.743-3.815-3.743h-6.84v-1.96A1.862 1.862 0 0 0 81.623 0H46.752a1.862 1.862 0 0 0-1.877 1.842V18a.9.9 0 0 0 .908.892.9.9 0 0 0 .908-.892V1.842a.06.06 0 0 1 .06-.06h34.873a.06.06 0 0 1 .06.06V18a.9.9 0 0 0 .909.89.9.9 0 0 0 .908-.89v-1.01h10.713a2.984 2.984 0 0 1 2.19.945 2.903 2.903 0 0 1 .637 1.074h-2.824a.9.9 0 0 0-.908.891v1.901a2.822 2.822 0 0 0 2.845 2.792h1.03v3.921h-2.375c-.78-2.21-2.921-3.802-5.436-3.802a5.785 5.785 0 0 0-4.179 1.772 5.637 5.637 0 0 0-1.256 2.03h-.437v-6.713a.9.9 0 0 0-.908-.891.9.9 0 0 0-.909.891v6.713H62.843a5.748 5.748 0 0 0-5.085-3.792 5.922 5.922 0 0 0-.35-.01 5.785 5.785 0 0 0-4.18 1.772 5.637 5.637 0 0 0-1.256 2.03h-5.22a.06.06 0 0 1-.061-.06v-1.96h3.935a.9.9 0 0 0 .909-.89.9.9 0 0 0-.909-.892h-8.718a.9.9 0 0 0-.908.891.9.9 0 0 0 .908.891h2.967v1.96a1.862 1.862 0 0 0 1.877 1.842h4.905a1.022 1.022 0 0 1 0 .027l-.001.033A5.705 5.705 0 0 0 57.407 36a5.705 5.705 0 0 0 5.752-5.643.885.885 0 0 0-.001-.033 1.094 1.094 0 0 1 0-.027h20.466a1.022 1.022 0 0 1-.001.027l-.001.033A5.705 5.705 0 0 0 89.373 36c3.172 0 5.752-2.531 5.752-5.643a.838.838 0 0 0 0-.033 1.017 1.017 0 0 1-.002-.027h2.969a.9.9 0 0 0 .908-.89V19.9c0-2.347-1.765-4.296-4.06-4.64ZM72.58 8.816a.911.911 0 0 0-.534-.255.918.918 0 0 0-.725.23.916.916 0 0 0-.026.025L63.22 16.74l-4.201-4.122a.91.91 0 0 0-.528-.254.917.917 0 0 0-.756.254.879.879 0 0 0-.063 1.192.908.908 0 0 0 .063.068l4.843 4.752a.91.91 0 0 0 .527.254.931.931 0 0 0 .115.007.94.94 0 0 0 .004 0c.22 0 .44-.08.613-.237a.913.913 0 0 0 .025-.024l8.718-8.554a.884.884 0 0 0 .238-.408.88.88 0 0 0-.237-.852Zm6.138 15.897H65.157a.9.9 0 0 0-.909.891.9.9 0 0 0 .909.892h13.561a.9.9 0 0 0 .908-.892.9.9 0 0 0-.908-.89Zm4.783-9.505V9.386h8.07l1.483 5.822h-9.553ZM55.47 20.911H43.846a.9.9 0 0 0-.909.891.9.9 0 0 0 .909.892H55.47a.9.9 0 0 0 .908-.892.9.9 0 0 0-.908-.89Zm29.968 9.446a3.903 3.903 0 0 0 3.936 3.861 3.903 3.903 0 0 0 3.935-3.861c0-2.13-1.765-3.862-3.935-3.862s-3.936 1.732-3.936 3.862Zm-28.03 3.861c-2.17 0-3.936-1.732-3.936-3.861a3.903 3.903 0 0 1 3.935-3.862c2.17 0 3.935 1.732 3.935 3.862a3.903 3.903 0 0 1-3.935 3.861ZM83.5 5.585h6.841c1.102 0 1.998.879 1.998 1.96v.06h-8.839v-2.02Zm-26.094 22.93c-1.035 0-1.877.826-1.877 1.842a1.862 1.862 0 0 0 1.877 1.841 1.862 1.862 0 0 0 1.877-1.841 1.862 1.862 0 0 0-1.877-1.842Zm31.967 0c-1.035 0-1.877.826-1.877 1.842a1.862 1.862 0 0 0 1.877 1.841 1.862 1.862 0 0 0 1.877-1.841 1.862 1.862 0 0 0-1.877-1.842Zm7.81-5.703h-1.03a1.02 1.02 0 0 1-1.029-1.01v-1.01h2.059v2.02Z" fill="rgba(0, 0, 0, 1)" fill-rule="evenodd" data-name="Shipped copy 2"/></svg>